<?xml version="1.0" encoding="UTF-8" standalone="no"?>
<!-- Created with Inkscape (http://www.inkscape.org/) -->

<svg
   width="340"
   height="340"
   viewBox="0 0 89.95833 89.958337"
   version="1.1"
   id="svg5"
   inkscape:version="1.1.1 (3bf5ae0d25, 2021-09-20)"
   sodipodi:docname="CNP logo.svg"
   xmlns:inkscape="http://www.inkscape.org/namespaces/inkscape"
   xmlns:sodipodi="http://sodipodi.sourceforge.net/DTD/sodipodi-0.dtd"
   xmlns="http://www.w3.org/2000/svg"
   xmlns:svg="http://www.w3.org/2000/svg">
  <sodipodi:namedview
     id="namedview7"
     pagecolor="#505050"
     bordercolor="#ffffff"
     borderopacity="1"
     inkscape:pageshadow="0"
     inkscape:pageopacity="0"
     inkscape:pagecheckerboard="1"
     inkscape:document-units="px"
     showgrid="false"
     units="px"
     fit-margin-top="0"
     fit-margin-left="0"
     fit-margin-right="0"
     fit-margin-bottom="0"
     inkscape:zoom="1.6824982"
     inkscape:cx="268.94531"
     inkscape:cy="214.26472"
     inkscape:window-width="1920"
     inkscape:window-height="1017"
     inkscape:window-x="-8"
     inkscape:window-y="-8"
     inkscape:window-maximized="1"
     inkscape:current-layer="g64436" />
  <defs
     id="defs2">
    <clipPath
       clipPathUnits="userSpaceOnUse"
       id="clipPath6112">
      <path
         d="M 1.1802e-5,0 H 792.00001 V 612 H 1.1802e-5 Z"
         clip-rule="evenodd"
         id="path6110" />
    </clipPath>
    <clipPath
       clipPathUnits="userSpaceOnUse"
       id="clipPath6124">
      <path
         d="M 1.1802e-5,0 H 792.00001 V 612 H 1.1802e-5 Z"
         clip-rule="evenodd"
         id="path6122" />
    </clipPath>
    <clipPath
       clipPathUnits="userSpaceOnUse"
       id="clipPath6132">
      <path
         d="M 1.1802e-5,0 H 792.00001 V 612 H 1.1802e-5 Z"
         clip-rule="evenodd"
         id="path6130" />
    </clipPath>
    <clipPath
       clipPathUnits="userSpaceOnUse"
       id="clipPath6144">
      <path
         d="M 1.1802e-5,0 H 792.00001 V 612 H 1.1802e-5 Z"
         clip-rule="evenodd"
         id="path6142" />
    </clipPath>
    <clipPath
       clipPathUnits="userSpaceOnUse"
       id="clipPath6152">
      <path
         d="M 1.1802e-5,0 H 792.00001 V 612 H 1.1802e-5 Z"
         clip-rule="evenodd"
         id="path6150" />
    </clipPath>
    <clipPath
       clipPathUnits="userSpaceOnUse"
       id="clipPath6160">
      <path
         d="M 1.1802e-5,0 H 792.00001 V 612 H 1.1802e-5 Z"
         clip-rule="evenodd"
         id="path6158" />
    </clipPath>
    <clipPath
       clipPathUnits="userSpaceOnUse"
       id="clipPath6172">
      <path
         d="M 1.1802e-5,0 H 792.00001 V 612 H 1.1802e-5 Z"
         clip-rule="evenodd"
         id="path6170" />
    </clipPath>
    <clipPath
       clipPathUnits="userSpaceOnUse"
       id="clipPath6180">
      <path
         d="M 1.1802e-5,0 H 792.00001 V 612 H 1.1802e-5 Z"
         clip-rule="evenodd"
         id="path6178" />
    </clipPath>
    <clipPath
       clipPathUnits="userSpaceOnUse"
       id="clipPath6192">
      <path
         d="M 1.1802e-5,0 H 792.00001 V 612 H 1.1802e-5 Z"
         clip-rule="evenodd"
         id="path6190" />
    </clipPath>
    <clipPath
       clipPathUnits="userSpaceOnUse"
       id="clipPath6200">
      <path
         d="M 1.1802e-5,0 H 792.00001 V 612 H 1.1802e-5 Z"
         clip-rule="evenodd"
         id="path6198" />
    </clipPath>
    <clipPath
       clipPathUnits="userSpaceOnUse"
       id="clipPath6212">
      <path
         d="M 1.1802e-5,0 H 792.00001 V 612 H 1.1802e-5 Z"
         clip-rule="evenodd"
         id="path6210" />
    </clipPath>
    <clipPath
       clipPathUnits="userSpaceOnUse"
       id="clipPath6220">
      <path
         d="M 1.1802e-5,0 H 792.00001 V 612 H 1.1802e-5 Z"
         clip-rule="evenodd"
         id="path6218" />
    </clipPath>
    <clipPath
       clipPathUnits="userSpaceOnUse"
       id="clipPath6232">
      <path
         d="M 1.1802e-5,0 H 792.00001 V 612 H 1.1802e-5 Z"
         clip-rule="evenodd"
         id="path6230" />
    </clipPath>
    <clipPath
       clipPathUnits="userSpaceOnUse"
       id="clipPath6240">
      <path
         d="M 1.1802e-5,0 H 792.00001 V 612 H 1.1802e-5 Z"
         clip-rule="evenodd"
         id="path6238" />
    </clipPath>
    <clipPath
       clipPathUnits="userSpaceOnUse"
       id="clipPath6252">
      <path
         d="M 1.1802e-5,0 H 792.00001 V 612 H 1.1802e-5 Z"
         clip-rule="evenodd"
         id="path6250" />
    </clipPath>
    <clipPath
       clipPathUnits="userSpaceOnUse"
       id="clipPath6260">
      <path
         d="M 456,298.13 H 695.66 V 537.79 H 456 Z"
         clip-rule="evenodd"
         id="path6258" />
    </clipPath>
    <clipPath
       clipPathUnits="userSpaceOnUse"
       id="clipPath6272">
      <path
         d="m 126.13,77.148 h 124.15 v 124.15 H 126.13 Z"
         clip-rule="evenodd"
         id="path6270" />
    </clipPath>
    <clipPath
       clipPathUnits="userSpaceOnUse"
       id="clipPath9610">
      <path
         d="M 1.1802e-5,0 H 792.00001 V 612 H 1.1802e-5 Z"
         clip-rule="evenodd"
         id="path9608" />
    </clipPath>
    <clipPath
       clipPathUnits="userSpaceOnUse"
       id="clipPath9622">
      <path
         d="M 1.1802e-5,0 H 792.00001 V 612 H 1.1802e-5 Z"
         clip-rule="evenodd"
         id="path9620" />
    </clipPath>
    <clipPath
       clipPathUnits="userSpaceOnUse"
       id="clipPath9630">
      <path
         d="M 1.1802e-5,0 H 792.00001 V 612 H 1.1802e-5 Z"
         clip-rule="evenodd"
         id="path9628" />
    </clipPath>
    <clipPath
       clipPathUnits="userSpaceOnUse"
       id="clipPath9642">
      <path
         d="M 1.1802e-5,0 H 792.00001 V 612 H 1.1802e-5 Z"
         clip-rule="evenodd"
         id="path9640" />
    </clipPath>
    <clipPath
       clipPathUnits="userSpaceOnUse"
       id="clipPath9650">
      <path
         d="M 1.1802e-5,0 H 792.00001 V 612 H 1.1802e-5 Z"
         clip-rule="evenodd"
         id="path9648" />
    </clipPath>
    <clipPath
       clipPathUnits="userSpaceOnUse"
       id="clipPath9658">
      <path
         d="M 1.1802e-5,0 H 792.00001 V 612 H 1.1802e-5 Z"
         clip-rule="evenodd"
         id="path9656" />
    </clipPath>
    <clipPath
       clipPathUnits="userSpaceOnUse"
       id="clipPath9670">
      <path
         d="M 1.1802e-5,0 H 792.00001 V 612 H 1.1802e-5 Z"
         clip-rule="evenodd"
         id="path9668" />
    </clipPath>
    <clipPath
       clipPathUnits="userSpaceOnUse"
       id="clipPath9678">
      <path
         d="M 1.1802e-5,0 H 792.00001 V 612 H 1.1802e-5 Z"
         clip-rule="evenodd"
         id="path9676" />
    </clipPath>
    <clipPath
       clipPathUnits="userSpaceOnUse"
       id="clipPath9690">
      <path
         d="M 1.1802e-5,0 H 792.00001 V 612 H 1.1802e-5 Z"
         clip-rule="evenodd"
         id="path9688" />
    </clipPath>
    <clipPath
       clipPathUnits="userSpaceOnUse"
       id="clipPath9698">
      <path
         d="M 1.1802e-5,0 H 792.00001 V 612 H 1.1802e-5 Z"
         clip-rule="evenodd"
         id="path9696" />
    </clipPath>
    <clipPath
       clipPathUnits="userSpaceOnUse"
       id="clipPath9710">
      <path
         d="M 1.1802e-5,0 H 792.00001 V 612 H 1.1802e-5 Z"
         clip-rule="evenodd"
         id="path9708" />
    </clipPath>
    <clipPath
       clipPathUnits="userSpaceOnUse"
       id="clipPath9718">
      <path
         d="M 1.1802e-5,0 H 792.00001 V 612 H 1.1802e-5 Z"
         clip-rule="evenodd"
         id="path9716" />
    </clipPath>
    <clipPath
       clipPathUnits="userSpaceOnUse"
       id="clipPath9730">
      <path
         d="M 1.1802e-5,0 H 792.00001 V 612 H 1.1802e-5 Z"
         clip-rule="evenodd"
         id="path9728" />
    </clipPath>
    <clipPath
       clipPathUnits="userSpaceOnUse"
       id="clipPath9738">
      <path
         d="M 1.1802e-5,0 H 792.00001 V 612 H 1.1802e-5 Z"
         clip-rule="evenodd"
         id="path9736" />
    </clipPath>
    <clipPath
       clipPathUnits="userSpaceOnUse"
       id="clipPath9750">
      <path
         d="M 1.1802e-5,0 H 792.00001 V 612 H 1.1802e-5 Z"
         clip-rule="evenodd"
         id="path9748" />
    </clipPath>
    <clipPath
       clipPathUnits="userSpaceOnUse"
       id="clipPath9758">
      <path
         d="M 456,298.13 H 695.66 V 537.79 H 456 Z"
         clip-rule="evenodd"
         id="path9756" />
    </clipPath>
    <clipPath
       clipPathUnits="userSpaceOnUse"
       id="clipPath9770">
      <path
         d="m 126.13,77.148 h 124.15 v 124.15 H 126.13 Z"
         clip-rule="evenodd"
         id="path9768" />
    </clipPath>
  </defs>
  <g
     inkscape:label="Layer 1"
     inkscape:groupmode="layer"
     id="layer1"
     transform="translate(-155.79854,-106.17178)">
    <g
       id="g6118"
       transform="matrix(0.35277777,0,0,-0.35277777,-96.050716,465.56452)">
      <g
         id="g6120"
         clip-path="url(#clipPath6124)" />
    </g>
    <g
       id="g6138"
       transform="matrix(0.35277777,0,0,-0.35277777,-96.050716,465.56452)">
      <g
         id="g6140"
         clip-path="url(#clipPath6144)" />
    </g>
    <g
       id="g6146"
       transform="matrix(0.35277777,0,0,-0.35277777,-96.050716,465.56452)">
      <g
         id="g6148"
         clip-path="url(#clipPath6152)" />
    </g>
    <g
       id="g6166"
       transform="matrix(0.35277777,0,0,-0.35277777,-96.050716,465.56452)">
      <g
         id="g6168"
         clip-path="url(#clipPath6172)" />
    </g>
    <g
       id="g6186"
       transform="matrix(0.35277777,0,0,-0.35277777,-96.050716,465.56452)">
      <g
         id="g6188"
         clip-path="url(#clipPath6192)" />
    </g>
    <g
       id="g6206"
       transform="matrix(0.35277777,0,0,-0.35277777,-96.050716,465.56452)">
      <g
         id="g6208"
         clip-path="url(#clipPath6212)" />
    </g>
    <g
       id="g6226"
       transform="matrix(0.35277777,0,0,-0.35277777,-96.050716,465.56452)">
      <g
         id="g6228"
         clip-path="url(#clipPath6232)" />
    </g>
    <g
       id="g6246"
       transform="matrix(0.35277777,0,0,-0.35277777,-96.050716,465.56452)">
      <g
         id="g6248"
         clip-path="url(#clipPath6252)" />
    </g>
    <g
       id="g64436"
       transform="translate(-19.622993,1.6352494)">
      <path
         style="fill:#1f74bb;fill-opacity:1;stroke-width:0.064627"
         d="m 218.05985,194.43527 c -13.33496,-0.68909 -25.6123,-7.22895 -33.65659,-17.92889 -7.96804,-10.59852 -10.81687,-24.18435 -7.81232,-37.25635 1.50806,-6.56136 4.66442,-12.95299 9.01545,-18.25658 1.78091,-2.17079 4.11177,-4.50177 6.27035,-6.27071 9.856,-8.07661 22.58176,-11.57282 35.255,-9.68562 15.74776,2.34503 29.16174,12.99331 35.08012,27.84734 3.48262,8.74068 4.1155,18.53442 1.79152,27.72415 -0.88577,3.50261 -2.14632,6.77105 -3.85157,9.98654 -6.0852,11.47444 -16.94512,19.83317 -29.53871,22.73554 -4.10755,0.94663 -8.36237,1.32104 -12.55325,1.10458 z"
         id="path60009" />
      <path
         style="fill:#ffffff;fill-opacity:1;stroke-width:0.0647523"
         d="m 223.57358,191.75004 c 5.01373,-0.39841 9.77144,-1.61342 14.24462,-3.63869 7.25102,-3.28301 13.48431,-8.59797 17.89231,-15.25619 7.16755,-10.82659 8.95924,-24.31137 4.86726,-36.63322 -0.78773,-2.37151 -1.43855,-3.92489 -2.5531,-6.09233 -6.07824,-11.82015 -17.47946,-20.15804 -30.58523,-22.3675 -4.16092,-0.7013 -8.64009,-0.76799 -12.83346,-0.19109 -8.38116,1.1537 -16.13988,4.75579 -22.46765,10.43091 -0.94736,0.85001 -2.73012,2.64101 -3.50316,3.52016 -5.53189,6.29081 -9.05261,13.96696 -10.18723,22.21135 -0.24245,1.75882 -0.33168,2.953 -0.37133,4.95386 -0.0828,4.20108 0.38936,8.05116 1.47245,12.01693 3.1055,11.36643 10.96604,21.05861 21.45406,26.45317 2.16717,1.11467 3.72047,1.76576 6.09159,2.55341 3.61374,1.2004 7.13331,1.87086 11.04292,2.10361 1.13527,0.0676 4.23501,0.0309 5.43554,-0.0645 z"
         id="path62632" />
      <g
         id="g64394"
         transform="translate(0.02580108,-0.14732767)">
        <path
           style="fill:#fdd700;fill-opacity:1;stroke-width:0.0646251"
           d="m 192.88911,139.41337 c -0.13853,-0.13673 -0.14573,-0.17181 -0.0782,-0.37601 0.10255,-0.31036 0.94888,-1.95633 1.17648,-2.28801 0.10161,-0.14843 0.18531,-0.28336 0.18531,-0.30045 0,-0.0165 0.14483,-0.18532 0.32205,-0.37603 0.34814,-0.37422 0.43809,-0.62881 0.32565,-0.9235 -0.0927,-0.24469 -0.0354,-0.48758 0.23748,-1.00475 0.29057,-0.54965 0.50827,-0.77633 0.74666,-0.77633 0.16282,0 0.31125,0.07 0.91901,0.43359 0.49477,0.29596 0.54335,0.30856 0.82222,0.20961 0.26897,-0.0945 0.60902,-0.49568 0.85999,-1.01338 0.20602,-0.42551 0.71788,-0.66659 1.2148,-0.57394 0.17542,0.033 0.26178,0.10705 0.421,0.36344 0.10976,0.17721 0.2411,0.32204 0.29147,0.32204 0.2159,0 0.55144,-0.2096 0.88339,-0.55144 0.35174,-0.36344 1.18331,-1.0643 1.26166,-1.0643 0.0223,0 0.24918,-0.12324 0.50467,-0.27437 0.68458,-0.40481 1.02588,-0.56134 2.48733,-1.14075 1.93366,-0.76645 2.34944,-0.97785 2.85951,-1.45328 0.91101,-0.84921 2.30121,-1.44364 4.42279,-1.89173 0.74215,-0.15652 0.98341,-0.17811 2.06795,-0.18082 0.94141,-0.002 1.35603,0.0238 1.77722,0.11246 1.38202,0.29056 2.45549,0.73045 3.61451,1.47944 0.92675,0.59912 1.69715,0.82852 2.78339,0.82852 0.88339,-2e-5 2.10503,-0.26088 2.85653,-0.60992 1.38014,-0.6414 3.06272,-0.94078 5.28414,-0.94078 1.75706,0 3.12956,0.16283 4.68735,0.55684 0.92414,0.2339 2.39973,0.78714 2.94047,1.10217 0.0888,0.0518 0.36523,0.19701 0.61351,0.32205 0.77274,0.38951 1.08778,0.57213 1.81365,1.05601 0.79073,0.52717 1.15182,0.81233 1.53172,1.21193 0.14393,0.15112 0.30045,0.27436 0.34813,0.27436 0.0479,0 0.087,0.028 0.087,0.0621 0,0.0341 0.12324,0.18981 0.27436,0.34724 0.45969,0.47678 0.77275,0.85639 1.79377,2.1759 0.15922,0.20601 0.88429,1.24511 1.10739,1.58812 0.24648,0.37872 0.81322,1.57805 0.8501,1.80024 0.0451,0.26898 -0.0695,0.47588 -0.29147,0.52446 -0.25998,0.0571 -0.27886,0.15382 -0.12234,0.6387 0.0745,0.23029 0.13583,0.4354 0.13583,0.45429 0,0.0193 -12.11961,0.0332 -26.93248,0.0311 l -26.9325,-0.004 -0.15293,-0.15113 z"
           id="path62702" />
        <path
           style="fill:#ffffff;fill-opacity:1;stroke-width:0.0646251"
           d="m 218.36193,137.77848 c 0.0284,-0.0445 0.0784,-0.0808 0.11155,-0.0808 0.086,0 0.645,-0.40301 0.645,-0.46509 0,-0.0287 0.0313,-0.0521 0.0695,-0.0521 0.0752,0 1.04765,-0.70977 1.083,-0.79073 0.0118,-0.027 0.0502,-0.0492 0.0853,-0.0492 0.0627,0 0.59912,0.34904 0.74126,0.48129 0.067,0.0629 0.26177,0.2069 1.18628,0.87709 0.19431,0.14123 0.38861,0.25638 0.43179,0.25638 0.0927,0 0.10161,0.0333 -0.4201,-1.51868 l -0.39132,-1.16324 0.15023,-0.12954 c 0.0826,-0.0711 0.34994,-0.27167 0.59463,-0.44619 0.73585,-0.52537 1.15416,-0.84292 1.17691,-0.89419 0.0118,-0.0267 0.0482,-0.0484 0.0808,-0.0484 0.0617,0 0.31755,-0.23389 0.31755,-0.29057 0,-0.0178 -0.65039,-0.0323 -1.44544,-0.0323 h -1.44545 l -0.13043,-0.37152 c -0.0718,-0.20421 -0.26898,-0.80153 -0.4372,-1.32725 -0.16912,-0.52535 -0.33555,-0.94617 -0.37063,-0.93457 -0.0563,0.0187 -0.30315,0.72146 -0.76194,2.16493 l -0.14843,0.46869 h -1.4432 c -0.8591,0 -1.44311,0.0246 -1.44311,0.0609 0,0.0683 0.42011,0.39402 1.42178,1.10415 0.75746,0.53615 0.84022,0.60542 0.84022,0.70257 0,0.0372 -0.18981,0.6369 -0.4219,1.33318 -0.23209,0.69627 -0.40392,1.29432 -0.38233,1.32958 0.0414,0.067 0.2105,-0.0348 0.30586,-0.18442 z"
           id="path62704" />
        <path
           style="fill:#1f74bb;fill-opacity:1;stroke-width:0.0646251"
           d="m 201.04417,156.89034 c -0.35533,-0.0727 -0.60452,-0.206 -1.08148,-0.57933 -0.21679,-0.16912 -0.60451,-0.44349 -0.86179,-0.60991 -0.51636,-0.33285 -0.645,-0.55054 -0.42821,-0.72147 0.30586,-0.24108 1.12188,-0.68458 1.47532,-0.80062 0.215,-0.0708 0.66389,-0.15923 0.99908,-0.19701 1.03784,-0.11605 1.43195,-0.44529 2.06148,-1.72603 0.38772,-0.78803 0.55324,-0.99655 1.59153,-2.00426 0.89959,-0.87259 0.96193,-0.95014 1.22982,-1.51868 0.32204,-0.68458 0.98009,-2.58989 1.39534,-4.04316 0.30406,-1.06528 0.30406,-1.08562 -0.0304,-1.33498 -0.25009,-0.18711 -0.66748,-0.16462 -1.71883,0.0927 -1.15821,0.28336 -2.41808,0.71877 -3.13378,1.08363 -0.47678,0.24288 -0.69358,0.40841 -1.19905,0.91587 -0.55684,0.55863 -1.49042,1.68743 -1.5668,1.89425 -0.0191,0.0519 -0.14483,-0.0292 -0.34544,-0.2222 -0.40121,-0.38682 -0.9513,-0.6405 -1.46911,-0.67739 -0.34274,-0.0243 -0.49746,0.009 -1.13994,0.2393 -0.94979,0.34183 -1.71181,0.55863 -2.15495,0.61441 -0.27707,0.0346 -0.41021,0.0169 -0.6405,-0.0847 -0.35713,-0.15743 -0.38862,-0.20691 -0.44619,-0.69268 -0.0254,-0.2132 -0.066,-0.45339 -0.09,-0.53255 -0.0438,-0.14483 -0.0429,-0.14483 0.2303,-0.0484 0.35984,0.12684 0.37422,0.12413 0.33825,-0.0636 -0.0503,-0.26267 0.0345,-0.46598 0.33734,-0.80692 0.36253,-0.40841 0.45518,-0.57574 0.36792,-0.66389 -0.0453,-0.0453 -0.16102,-0.007 -0.36612,0.11964 -0.68189,0.42371 -0.91335,0.53885 -1.08625,0.54065 -0.14124,0.001 -0.17542,0.0266 -0.15113,0.11424 0.0776,0.28607 0.10705,0.46869 0.0752,0.46869 -0.019,0 -0.18711,-0.0861 -0.37332,-0.19161 -0.45249,-0.25549 -0.82852,-0.38233 -1.34901,-0.4561 -0.23749,-0.0337 -0.50737,-0.0953 -0.59822,-0.13673 -0.19701,-0.0896 -0.27438,-0.28337 -0.16553,-0.41471 0.0657,-0.0792 0.0406,-0.0935 -0.16012,-0.0935 -0.31126,0 -0.45249,-0.0813 -0.54965,-0.31485 -0.11154,-0.26988 -0.003,-0.439 0.33735,-0.52626 0.15023,-0.0384 0.35443,-0.10161 0.45428,-0.14033 0.27618,-0.10795 0.99269,-0.92998 1.5319,-1.75751 l 0.48488,-0.74395 27.27703,-0.003 27.27701,-0.003 0.24739,0.6297 c 0.13583,0.34634 0.32654,0.80513 0.42279,1.01869 0.233,0.51546 0.34455,1.07842 0.29507,1.49636 -0.054,0.45968 0.0636,1.7433 0.25459,2.77827 0.26987,1.46326 0.72955,2.65916 1.28675,3.34563 0.29237,0.35983 0.52266,0.83841 0.69448,1.4387 0.12235,0.4273 0.14394,0.66749 0.14663,1.56788 l 0.002,1.06322 -1.09388,0.76823 c -0.6648,0.46868 -1.17189,0.78084 -1.29253,0.79704 -0.10884,0.0145 -0.82042,0.0552 -1.57984,0.0909 -1.20814,0.0562 -1.42629,0.0512 -1.74033,-0.0401 -0.26898,-0.0783 -0.48938,-0.0935 -0.88069,-0.062 l -0.52175,0.0423 -0.31396,-0.31936 -0.31395,-0.31844 0.47587,-0.48218 c 0.26898,-0.27257 0.62432,-0.55684 0.81592,-0.654 0.37783,-0.1907 1.18403,-0.39401 1.82517,-0.46148 0.54334,-0.0567 0.71067,-0.1979 0.71067,-0.59643 0,-0.55773 -0.4615,-0.80332 -1.55097,-0.8258 -0.53886,-0.0111 -0.72327,-0.0491 -1.50204,-0.30946 -2.16052,-0.72236 -2.95431,-1.25437 -3.49046,-2.33819 -0.0879,-0.17812 -0.19521,-0.4318 -0.23839,-0.56494 l -0.0784,-0.24199 -0.4309,0.30406 c -1.90873,1.34739 -3.53274,2.63721 -4.48261,3.56028 -0.67469,0.65489 -1.51013,1.73312 -2.04511,2.63721 l -0.23389,0.39581 -1.68177,0.2042 c -0.92495,0.11245 -2.00166,0.2357 -2.39261,0.27437 -0.87619,0.087 -1.81671,0.0408 -2.09504,-0.10342 -0.11244,-0.058 -0.29865,-0.11334 -0.4138,-0.12234 -0.19881,-0.0156 -1.67062,-0.87349 -1.76741,-1.0301 -0.0621,-0.10076 0.25908,-0.33195 0.9639,-0.69629 0.83031,-0.42819 1.42314,-0.57482 2.45036,-0.60721 0.90076,-0.0283 1.18727,-0.11695 1.25547,-0.38862 0.0217,-0.0865 -0.0215,-0.60182 -0.0963,-1.14588 -0.31755,-2.31723 -0.31305,-3.4248 0.0205,-4.8985 0.0845,-0.37332 0.14933,-0.68278 0.14394,-0.68727 -0.01,-0.01 -5.55051,-0.2195 -5.74059,-0.2186 -0.0953,7.5e-4 -0.0817,0.0811 0.10437,0.63061 0.30766,0.91037 0.6378,1.68186 1.11288,2.60114 0.65399,1.26615 0.63509,1.66484 -0.14574,2.9463 -0.23569,0.38772 -0.55594,1.00861 -0.70976,1.37978 -0.31756,0.76465 -0.47499,0.95698 -0.85281,1.04181 -0.23479,0.0528 -3.42858,0.1889 -4.44079,0.1889 l -0.38771,7e-5 -0.32296,-0.40122 c -0.56493,-0.70076 -0.55503,-0.59462 -0.0927,-1.02372 0.68369,-0.6351 1.3447,-0.90074 2.23815,-0.90074 0.32836,0 0.34905,-0.0106 0.4498,-0.22131 0.099,-0.2078 0.0981,-0.23209 -0.0172,-0.4147 -0.0674,-0.10619 -0.61711,-0.57843 -1.22126,-1.04864 -1.35486,-1.05468 -2.56948,-2.26056 -3.06974,-3.04751 -0.1952,-0.30766 -0.38771,-0.56134 -0.4264,-0.56314 -0.15652,-0.01 -0.74755,0.70617 -1.67124,2.02388 -0.37513,0.53435 -1.25608,1.42664 -2.13624,2.16223 -1.90135,1.58902 -5.47125,4.08463 -6.79147,4.74762 l -0.57663,0.28967 -1.04046,0.067 c -0.61441,0.0396 -1.13257,0.10523 -1.26534,0.16103 -0.30497,0.12774 -0.80153,0.17452 -1.12835,0.10795 z"
           id="path62700" />
      </g>
      <g
         id="g64389"
         transform="translate(-0.16416327,-0.14732767)">
        <path
           style="fill:#1f74bb;fill-opacity:1;stroke-width:0.0646251"
           d="m 245.43741,164.37207 c 0.46148,-1.11071 1.09262,-2.63028 1.40271,-3.37667 l 0.56403,-1.35711 0.85101,-0.018 c 0.83122,-0.0177 0.8519,-0.0148 0.91434,0.12954 0.0351,0.081 0.67018,1.60863 1.41108,3.39466 l 1.3473,3.24739 h -0.72596 -0.72596 l -0.27347,-0.67917 -0.27347,-0.67919 -1.67692,0.0172 -1.67691,0.0172 -0.25908,0.66209 -0.25907,0.66209 h -0.72866 -0.72866 z"
           id="path62696" />
        <path
           style="fill:#ffffff;fill-opacity:1;stroke-width:0.0646251"
           d="m 249.40959,163.79004 c -0.31845,-0.81682 -1.11764,-2.69812 -1.14634,-2.69812 -0.0298,0 -0.91568,2.08236 -1.134,2.66583 -0.0394,0.10523 0.0406,0.11334 1.13473,0.11334 0.91541,0 1.17008,-0.018 1.14561,-0.0807 z"
           id="path62698" />
        <path
           style="fill:#1f74bb;fill-opacity:1;stroke-width:0.0646251"
           d="m 242.31847,162.99877 v -3.39286 h 0.67828 0.67828 v 3.39331 3.39286 h -0.67828 -0.67828 z"
           id="path62694" />
        <path
           style="fill:#1f74bb;fill-opacity:1;stroke-width:0.0646251"
           d="m 234.56345,162.99877 v -3.39286 l 0.72686,0.001 0.72686,0.001 1.68024,2.33369 1.68024,2.3337 0.017,-2.33478 0.0169,-2.33477 h 0.67738 0.67739 v 3.3934 3.39286 l -0.72686,-0.001 -0.72687,-0.001 -1.68023,-2.33369 -1.68023,-2.3337 -0.017,2.33478 -0.0169,2.33477 h -0.67738 -0.67739 z"
           id="path62692" />
        <path
           style="fill:#1f74bb;fill-opacity:1;stroke-width:0.0646251"
           d="m 227.19625,162.99877 v -3.39286 l 1.69643,5.2e-4 c 2.35358,6.8e-4 2.90187,0.11064 3.5618,0.71336 0.47317,0.4327 0.64589,0.83482 0.65128,1.51544 0.003,0.42729 -0.0253,0.57842 -0.16371,0.87259 -0.18262,0.38772 -0.59013,0.83301 -0.89868,0.98234 l -0.19522,0.0945 0.47139,0.67289 c 0.25907,0.37064 0.66839,0.9568 0.91011,1.30332 l 0.43898,0.6297 h -0.80062 -0.80063 l -0.80062,-1.16324 -0.80063,-1.16325 h -0.95734 -0.95571 v 1.16325 1.16324 h -0.67828 -0.67829 v -3.39285 z"
           id="path62688" />
        <path
           style="fill:#ffffff;fill-opacity:1;stroke-width:0.0646251"
           d="m 230.83317,162.89801 c 0.28696,-0.0796 0.65759,-0.38682 0.80062,-0.66299 0.13494,-0.26089 0.0855,-0.74306 -0.10257,-1.0069 -0.0797,-0.11155 -0.26628,-0.26808 -0.4138,-0.34724 -0.24379,-0.13045 -0.37873,-0.14574 -1.41631,-0.16553 l -1.14705,-0.0217 v 1.13617 1.13617 l 1.01787,-3.9e-4 c 0.55954,-1.9e-4 1.12772,-0.0308 1.26194,-0.0682 z"
           id="path62690" />
        <path
           style="fill:#1f74bb;fill-opacity:1;stroke-width:0.0646251"
           d="m 212.91412,162.99877 v -3.39286 h 2.71421 2.71422 v 0.54965 0.54964 h -2.03566 -2.03567 v 1.03398 1.03398 h 1.3894 1.38941 v 0.54964 0.54965 h -1.38967 -1.3894 v 1.26013 1.26022 h -0.6783 -0.67828 z"
           id="path62686" />
        <path
           style="fill:#1f74bb;fill-opacity:1;stroke-width:0.0646251"
           d="m 210.00595,162.99877 v -3.39286 h 0.67828 0.67829 v 3.39331 3.39286 h -0.67829 -0.67828 z"
           id="path62684" />
        <path
           style="fill:#1f74bb;fill-opacity:1;stroke-width:0.0646251"
           d="m 203.86658,162.99877 v -3.39286 h 0.67828 0.67829 v 2.84348 2.84349 h 1.90649 1.90647 v 0.54964 0.54965 h -2.58503 -2.58503 z"
           id="path62682" />
        <path
           style="fill:#1f74bb;fill-opacity:1;stroke-width:0.0646251"
           d="m 196.51619,164.37243 c 0.46149,-1.11071 1.09264,-2.6302 1.40272,-3.37667 l 0.56404,-1.35711 0.851,-0.0181 c 0.83121,-0.0177 0.85191,-0.0148 0.91433,0.12954 0.0351,0.081 0.6702,1.60862 1.41108,3.39465 l 1.34731,3.2474 h -0.72596 -0.72596 l -0.27348,-0.67918 -0.27347,-0.67918 -1.6769,0.0172 -1.67692,0.0172 -0.25907,0.6621 -0.25909,0.66209 h -0.72866 -0.72865 z"
           id="path62678" />
        <path
           style="fill:#ffffff;fill-opacity:1;stroke-width:0.0646251"
           d="m 200.48838,163.7904 c -0.31845,-0.81682 -1.11764,-2.69811 -1.14633,-2.69811 -0.0298,0 -0.91568,2.08235 -1.13402,2.66582 -0.0394,0.10523 0.0407,0.11335 1.13474,0.11335 0.91541,0 1.17009,-0.018 1.14561,-0.0808 z"
           id="path62680" />
        <path
           style="fill:#1f74bb;fill-opacity:1;stroke-width:0.0646251"
           d="m 221.50917,166.48518 c -1.03299,-0.22309 -1.95281,-0.91802 -2.37966,-1.79907 -0.2231,-0.46059 -0.39942,-1.20454 -0.39942,-1.6868 0,-1.34587 0.74756,-2.60501 1.8741,-3.15699 2.27819,-1.1162 4.8886,0.0556 5.33623,2.3955 0.11605,0.60631 0.11605,0.91667 0,1.52308 -0.37873,1.98124 -2.32605,3.17812 -4.43152,2.72428 z"
           id="path62674" />
        <path
           style="fill:#ffffff;fill-opacity:1;stroke-width:0.0646251"
           d="m 223.33675,165.20635 c 0.43541,-0.21321 0.84112,-0.64141 1.07015,-1.12943 0.15383,-0.32745 0.17182,-0.4426 0.17182,-1.07761 0,-0.6351 -0.0184,-0.75025 -0.17182,-1.07761 -0.23029,-0.49027 -0.63511,-0.91641 -1.07914,-1.13446 -0.31664,-0.15562 -0.44169,-0.17902 -0.94617,-0.17902 -0.50467,0 -0.62971,0.0236 -0.94618,0.17902 -0.4444,0.2177 -0.84921,0.6441 -1.07914,1.13446 -0.15383,0.32745 -0.17182,0.44259 -0.17182,1.07761 0,0.63331 0.0186,0.75025 0.17002,1.07409 0.29236,0.62252 0.77274,1.06512 1.36934,1.26014 0.4327,0.14123 1.18529,0.0819 1.61277,-0.12684 z"
           id="path62676" />
        <path
           style="fill:#1f74bb;fill-opacity:1;stroke-width:0.0646251"
           d="m 192.02253,166.49118 c -1.42584,-0.29776 -2.46719,-1.33778 -2.73365,-2.73024 -0.11604,-0.60631 -0.11604,-0.91667 0,-1.52308 0.13224,-0.69268 0.44259,-1.28487 0.92783,-1.76992 1.10279,-1.10316 2.96727,-1.36332 4.52813,-0.6315 l 0.47498,0.22308 -0.17002,0.27438 c -0.0935,0.15113 -0.2168,0.36613 -0.27348,0.47767 l -0.10342,0.20241 -0.33106,-0.14573 c -0.85819,-0.37872 -1.82686,-0.38052 -2.55111,-0.006 -0.34005,0.17633 -0.77904,0.6558 -0.96759,1.05845 -0.15383,0.32925 -0.17272,0.4435 -0.17272,1.07905 0,0.6351 0.0183,0.75025 0.17272,1.07905 0.21949,0.46778 0.67108,0.92126 1.1269,1.12978 0.69538,0.31845 1.6824,0.26358 2.4716,-0.13584 l 0.31576,-0.16012 0.29415,0.45159 0.29417,0.45159 -0.26897,0.17092 c -0.14843,0.0945 -0.51366,0.25548 -0.81233,0.35983 -0.66209,0.22939 -1.54098,0.28697 -2.22088,0.14484 z"
           id="path62672" />
        <path
           style="fill:#1f74bb;fill-opacity:1;stroke-width:0.0646251"
           d="m 248.07008,171.94587 v -0.71517 l -0.90471,-1.52191 c -0.49746,-0.8366 -0.9047,-1.53316 -0.9047,-1.54691 0,-0.0137 0.2123,-0.025 0.47048,-0.025 h 0.47047 l 0.6432,1.09866 c 0.35354,0.60452 0.6585,1.09866 0.67649,1.09866 0.0183,0 0.32295,-0.49477 0.67649,-1.09866 l 0.6432,-1.09866 h 0.47047 c 0.25909,0 0.47048,0.0113 0.47048,0.025 0,0.0137 -0.4075,0.70976 -0.9047,1.54691 l -0.90479,1.52191 v 0.71517 0.71517 h -0.45249 -0.45249 z"
           id="path62670" />
        <path
           style="fill:#1f74bb;fill-opacity:1;stroke-width:0.0646251"
           d="m 243.61095,170.78667 v -1.8741 h -0.77544 -0.77543 v -0.38772 -0.38771 h 2.00336 2.00337 v 0.38771 0.38772 h -0.77545 -0.77543 v 1.8741 1.87409 h -0.45249 -0.45249 z"
           id="path62668" />
        <path
           style="fill:#1f74bb;fill-opacity:1;stroke-width:0.0646251"
           d="m 237.53617,170.39446 v -2.2665 l 1.3733,0.0207 c 1.36224,0.0207 1.37636,0.0222 1.7513,0.20601 0.78353,0.38502 1.04811,1.3043 0.58203,2.0227 -0.0909,0.14034 -0.25008,0.31125 -0.35263,0.38053 -0.10257,0.0691 -0.18712,0.14843 -0.18712,0.17541 0,0.0277 0.22759,0.39132 0.50467,0.80783 0.27797,0.4165 0.52715,0.79343 0.55324,0.83841 0.0366,0.0618 -0.0713,0.0808 -0.45969,0.0808 h -0.50736 l -0.53256,-0.77544 -0.53254,-0.77544 h -0.64411 -0.64409 v 0.77544 0.77544 h -0.45249 -0.45249 z"
           id="path62664" />
        <path
           style="fill:#ffffff;fill-opacity:1;stroke-width:0.0646251"
           d="m 240.22979,170.16686 c 0.43629,-0.32475 0.44889,-0.82312 0.0272,-1.1063 -0.19881,-0.13405 -0.29416,-0.14754 -1.01787,-0.14754 h -0.79792 v 0.71607 0.71607 l 0.80332,-0.0214 c 0.69447,-0.0185 0.82761,-0.0398 0.98558,-0.15652 z"
           id="path62666" />
        <path
           style="fill:#1f74bb;fill-opacity:1;stroke-width:0.0646251"
           d="m 232.10846,172.64485 c 4.6e-4,-0.009 0.4183,-1.0195 0.92756,-2.24572 l 0.92675,-2.22952 0.57482,-0.0168 0.57483,-0.0168 0.8861,2.14946 c 0.48756,1.18224 0.90497,2.20038 0.92782,2.26254 0.0372,0.10161 -0.009,0.11335 -0.44079,0.11335 h -0.48308 l -0.16012,-0.4363 -0.16013,-0.4363 -1.13095,-0.0176 -1.13095,-0.0177 -0.17812,0.45339 -0.17811,0.45339 h -0.47858 c -0.26358,0 -0.47858,-0.007 -0.47858,-0.0162 z"
           id="path62660" />
        <path
           style="fill:#ffffff;fill-opacity:1;stroke-width:0.0646251"
           d="m 234.98388,170.14167 c -0.19162,-0.46148 -0.37243,-0.88339 -0.40301,-0.93646 -0.0388,-0.0695 -0.16013,0.15832 -0.42371,0.79433 -0.2033,0.49027 -0.36972,0.91199 -0.36972,0.93646 0,0.0245 0.34724,0.0445 0.77184,0.0445 h 0.77184 z"
           id="path62662" />
        <path
           style="fill:#1f74bb;fill-opacity:1;stroke-width:0.0646251"
           d="m 228.03623,170.39914 v -2.26191 h 1.24844 c 1.39355,0 1.70983,0.057 2.17168,0.39131 0.38503,0.27888 0.61621,0.78983 0.56764,1.25573 -0.044,0.4273 -0.24109,0.81772 -0.51816,1.02957 -0.38053,0.28967 -0.72327,0.37333 -1.67637,0.40931 l -0.88878,0.0328 v 0.70257 0.70257 h -0.45249 -0.45249 z"
           id="path62656" />
        <path
           style="fill:#ffffff;fill-opacity:1;stroke-width:0.0646251"
           d="m 230.66544,170.33814 c 0.44709,-0.2033 0.58742,-0.62251 0.34184,-1.02544 -0.19521,-0.32024 -0.45879,-0.40031 -1.32104,-0.40031 h -0.74485 v 0.77544 0.77545 l 0.72686,-0.001 c 0.57394,-0.001 0.78354,-0.0272 0.99737,-0.12414 z"
           id="path62658" />
        <path
           style="fill:#1f74bb;fill-opacity:1;stroke-width:0.0646251"
           d="m 222.09072,170.39914 v -2.26191 h 0.45249 0.45249 v 1.8741 1.87409 h 1.26023 1.26021 v 0.38773 0.38771 h -1.71298 -1.71252 z"
           id="path62654" />
        <path
           style="fill:#1f74bb;fill-opacity:1;stroke-width:0.0646251"
           d="m 216.66301,172.64503 c 4.6e-4,-0.009 0.4183,-1.0195 0.92756,-2.24571 l 0.92674,-2.22953 0.57484,-0.0168 0.57483,-0.0168 0.88609,2.14946 c 0.48757,1.18222 0.90498,2.20037 0.92783,2.26253 0.0372,0.10161 -0.009,0.11335 -0.4408,0.11335 h -0.48307 l -0.16013,-0.4363 -0.16012,-0.43629 -1.13095,-0.0176 -1.13096,-0.0175 -0.17812,0.45428 -0.17812,0.45339 h -0.47857 c -0.26358,0 -0.47858,-0.007 -0.47768,-0.0162 z"
           id="path62650" />
        <path
           style="fill:#ffffff;fill-opacity:1;stroke-width:0.0646251"
           d="m 219.53843,170.14185 c -0.19161,-0.46148 -0.37242,-0.88249 -0.40301,-0.93646 -0.0388,-0.0695 -0.16102,0.15833 -0.4237,0.79433 -0.20331,0.49027 -0.36973,0.912 -0.36973,0.93646 0,0.0245 0.34724,0.0445 0.77184,0.0445 h 0.77184 z"
           id="path62652" />
        <path
           style="fill:#1f74bb;fill-opacity:1;stroke-width:0.0646251"
           d="m 211.94453,170.39932 v -2.26192 h 0.48127 0.48128 l 1.11827,1.55008 1.11827,1.55006 0.0174,-1.55006 0.0173,-1.55008 h 0.45159 0.45159 v 2.26192 2.2619 h -0.48127 -0.48128 l -1.11827,-1.55006 -1.11827,-1.55008 -0.0173,1.55008 -0.0173,1.55006 h -0.45159 -0.45159 z"
           id="path62648" />
        <path
           style="fill:#1f74bb;fill-opacity:1;stroke-width:0.0646251"
           d="m 204.57723,170.39932 v -2.26192 h 0.45249 0.45249 v 2.26192 2.2619 h -0.45249 -0.45249 z"
           id="path62646" />
        <path
           style="fill:#1f74bb;fill-opacity:1;stroke-width:0.0646251"
           d="m 201.53989,170.78703 v -1.8741 h -0.77544 -0.77545 v -0.38771 -0.38772 h 2.00338 2.00336 v 0.38772 0.38771 h -0.77544 -0.77543 v 1.8741 1.87411 h -0.45249 -0.45249 z"
           id="path62644" />
        <path
           style="fill:#1f74bb;fill-opacity:1;stroke-width:0.0646251"
           d="m 195.27206,172.64521 c 4.5e-4,-0.009 0.4183,-1.0195 0.92756,-2.24571 l 0.92674,-2.22953 0.57483,-0.0168 0.57484,-0.0168 0.88608,2.14946 c 0.48757,1.18223 0.90498,2.20029 0.92784,2.26253 0.0372,0.10161 -0.009,0.11335 -0.4408,0.11335 h -0.48308 l -0.16012,-0.4363 -0.16013,-0.43629 -1.13095,-0.0176 -1.13096,-0.0175 -0.17811,0.45338 -0.17812,0.45339 h -0.47857 c -0.26358,0 -0.47858,-0.007 -0.47769,-0.0162 z"
           id="path62640" />
        <path
           style="fill:#fefefe;fill-opacity:1;stroke-width:0.0646251"
           d="m 198.14748,170.14203 c -0.19162,-0.46148 -0.37243,-0.88338 -0.40301,-0.93646 -0.0388,-0.0695 -0.16013,0.15832 -0.42371,0.79433 -0.2033,0.49027 -0.36972,0.91199 -0.36972,0.93646 0,0.0245 0.34724,0.0445 0.77184,0.0445 h 0.77184 z"
           id="path62642" />
        <path
           style="fill:#1f74bb;fill-opacity:1;stroke-width:0.0646251"
           d="m 190.55357,170.3995 v -2.26192 h 0.48128 0.48128 l 1.11826,1.55008 1.11827,1.55006 0.0173,-1.55006 0.0174,-1.55008 h 0.45158 0.4516 v 2.26192 2.2619 h -0.48128 -0.48127 l -1.11828,-1.55007 -1.11826,-1.55007 -0.0173,1.55007 -0.0173,1.55007 h -0.45159 -0.45159 z"
           id="path62638" />
        <path
           style="fill:#1f74bb;fill-opacity:1;stroke-width:0.0646251"
           d="m 207.85223,172.66698 c -0.68097,-0.224 -1.16261,-0.67199 -1.42241,-1.32193 -0.10161,-0.25368 -0.13224,-0.47678 -0.13224,-0.94573 4.5e-4,-0.80963 0.15293,-1.213 0.6459,-1.70552 0.50196,-0.50196 0.89598,-0.6486 1.7379,-0.6486 0.84201,0 1.2363,0.14753 1.73781,0.6486 0.49297,0.49297 0.645,0.89598 0.645,1.70552 0,0.80962 -0.15203,1.21272 -0.645,1.70551 -0.45698,0.45699 -0.88788,0.63151 -1.64092,0.66299 -0.41651,0.0176 -0.6405,-0.006 -0.92558,-0.10076 z"
           id="path62634" />
        <path
           style="fill:#ffffff;fill-opacity:1;stroke-width:0.0646251"
           d="m 209.28078,171.91493 c 1.20912,-0.50467 1.20912,-2.52647 0,-3.03078 -0.51186,-0.2132 -1.23864,-0.0909 -1.62366,0.27527 -0.34814,0.33015 -0.46148,0.6342 -0.46148,1.24061 0,0.4381 0.028,0.60182 0.13853,0.80782 0.17272,0.32206 0.43809,0.57754 0.73226,0.70528 0.29506,0.12774 0.91047,0.12954 1.2138,0.003 z"
           id="path62636" />
      </g>
    </g>
  </g>
</svg>
